<svg xmlns="http://www.w3.org/2000/svg" xmlns:xlink="http://www.w3.org/1999/xlink" width="136" height="136" viewBox="0 0 136 136">
  <defs>
    <clipPath id="clip-path">
      <rect id="Rectangle_1902" data-name="Rectangle 1902" width="136" height="136" transform="translate(0.25 0)" fill="none"/>
    </clipPath>
  </defs>
  <g id="RETAILER_LOGOS_BESTBUY" data-name="RETAILER LOGOS_BESTBUY" transform="translate(-0.25)" clip-path="url(#clip-path)">
    <g id="Group_2668" data-name="Group 2668" transform="translate(28.305 44.816)">
      <path id="Path_10407" data-name="Path 10407" d="M13.341,21.36V41.378H23.818c4.123,0,7.947-1.445,7.947-5.695,0-2.869-2.061-4.186-4.356-4.866a4.3,4.3,0,0,0,2.954-4.186c0-3.145-3.124-5.27-7.31-5.27H13.32Zm6.418,4.654h2.359a1.648,1.648,0,0,1,1.7,1.509,1.678,1.678,0,0,1-1.7,1.466H19.759v-3h0Zm0,7.14h3.124a1.931,1.931,0,0,1,2,1.764,1.961,1.961,0,0,1-2.189,1.827H19.759V33.132h0Z" transform="translate(-13.32 -20.786)" fill="#fff" fill-rule="evenodd"/>
      <path id="Path_10408" data-name="Path 10408" d="M15.781,31.81V51.827H26.258c4.123,0,7.947-1.445,7.947-5.695,0-2.869-2.061-4.186-4.356-4.866A4.3,4.3,0,0,0,32.8,37.08c0-3.145-3.124-5.27-7.31-5.27H15.76ZM22.2,36.464h2.359a1.648,1.648,0,0,1,1.7,1.509,1.678,1.678,0,0,1-1.7,1.466H22.2v-3h0Zm0,7.14h3.124a1.931,1.931,0,0,1,2,1.764A1.961,1.961,0,0,1,25.131,47.2H22.2V43.583h0Z" transform="translate(-10.575 -9.03)" fill="#fff" fill-rule="evenodd"/>
      <path id="Path_10409" data-name="Path 10409" d="M22.24,41.378V21.36H38.39v4.824H28.636v2.635h7.9v4.526h-7.9v3.209H38.39v4.824Z" transform="translate(-3.285 -20.786)" fill="#fff" fill-rule="evenodd"/>
      <path id="Path_10410" data-name="Path 10410" d="M38.416,42.255c4.548,0,8.181-2.592,8.181-6.8,0-6.779-8.819-5.738-8.819-7.841,0-.807.85-1.254,1.742-1.254a4.288,4.288,0,0,1,2.614,1l3.8-3.613A10.155,10.155,0,0,0,38.8,21.09c-4.845,0-8.033,2.869-8.033,6.354,0,6.864,8.691,5.865,8.691,8.033,0,.765-.723,1.509-2.04,1.509A5.876,5.876,0,0,1,33.8,35.306L29.98,38.94a11.311,11.311,0,0,0,8.436,3.315h0Z" transform="translate(5.422 -21.09)" fill="#fff" fill-rule="evenodd"/>
      <path id="Path_10411" data-name="Path 10411" d="M42.931,41.378V26.163H37.64v-4.8h17v4.8H49.349V41.378Z" transform="translate(14.04 -20.786)" fill="#fff" fill-rule="evenodd"/>
      <path id="Path_10412" data-name="Path 10412" d="M24.55,31.8h6.4V43.785a2.539,2.539,0,0,0,2.486,2.337,2.454,2.454,0,0,0,2.4-2.4V31.8h6.375V43.658a8.636,8.636,0,0,1-8.946,8.457A8.682,8.682,0,0,1,24.55,43.4V31.8h0Z" transform="translate(-0.686 -9.041)" fill="#fff" fill-rule="evenodd"/>
      <path id="Path_10413" data-name="Path 10413" d="M40.553,51.818v-7.14L33.03,31.8h6.481l4.25,6.906L48.054,31.8h6.481L46.991,44.741v7.076Z" transform="translate(8.854 -9.041)" fill="#fff" fill-rule="evenodd"/>
      <path id="Path_10414" data-name="Path 10414" d="M45.153,36.96,41.37,40.742v5.1l3.783,3.782h15.98V36.96Zm-1.466,7.183a.85.85,0,1,1,.85-.85A.853.853,0,0,1,43.686,44.143Z" transform="translate(18.236 -3.236)" fill="#fff" fill-rule="evenodd"/>
    </g>
  </g>
</svg>
