<?xml version="1.0" encoding="utf-8"?>
<!-- Generator: Adobe Illustrator 19.0.0, SVG Export Plug-In . SVG Version: 6.00 Build 0)  -->
<svg version="1.1" id="Layer_1" xmlns="http://www.w3.org/2000/svg" xmlns:xlink="http://www.w3.org/1999/xlink" x="0px" y="0px"
	 viewBox="-237 329 136 136" style="enable-background:new -237 329 136 136;" xml:space="preserve">
<style type="text/css">
	.st0{fill:#FFFFFF;}
</style>
<g>
	<title>Layer 1</title>
	<path id="svg_11" class="st0" d="M-220.2,392.7c-2,0.8-4,2.6-4,4.9c0.1,2.5,2.6,3.8,4.9,3.9c1.4,0.1,2.8-0.1,4.2-0.6
		c1-0.4,2.1-0.9,3-1.5c0,0,0,0,0,0c-0.7,2.9-1.4,5.7-2,8.6c0,0.1-0.1,0.2-0.1,0.3c0,0,0,0,0,0c-0.5,0.2-1,0.3-1.5,0.4
		c-0.7,0.1-1.5,0.2-2.2,0.3c-1.5,0.2-2.8,0.2-4.1,0.2c-1.8,0-3.5-0.2-5.1-0.7c-4.2-1.2-7.8-4.2-8.2-8.8c-0.1-1.6,0.2-3.2,0.7-4.7
		c1.1-2.9,3.4-5.4,6-7.1c2.1-1.4,4.3-2.4,6.8-3c1.9-0.5,3.9-0.7,5.8-0.6c2.3,0.1,4.4,0.4,6.5,1c0,0,0,0,0,0l-1.5,9
		c0,0.1,0,0.1-0.1,0c0,0,0-0.1-0.1-0.1c-1.3-1-2.6-1.8-4.2-2.1C-217.1,391.9-218.7,392.1-220.2,392.7L-220.2,392.7z"/>
	<path id="svg_12" class="st0" d="M-190.6,407.1c-1.4,0.8-2.9,1.4-4.4,1.8c-2,0.5-4.1,0.8-6.2,0.7c-1.1,0-2.1-0.2-3.1-0.4
		c-1.8-0.4-3.5-1.1-4.9-2.2c-2-1.7-3-4-2.7-6.6c0.1-1.3,0.5-2.6,1.1-3.8c0.6-1.1,1.3-2,2.1-2.8c3.3-3.2,7.9-4.7,12.4-4.7
		c1.9,0,3.6,0.3,5.3,0.8c1.1,0.3,2,0.8,3,1.5c1.9,1.3,3.1,3.2,3.4,5.4c0,0.1,0,0.3,0.1,0.4c0.1,0.3,0,0.5,0,0.8c0,0.4,0,0.7-0.1,1.1
		C-185.3,402.5-187.6,405.3-190.6,407.1L-190.6,407.1z M-199.8,396c-1.3,0.5-2.5,1.5-3,2.8c-0.4,1.1-0.4,2.4,0.4,3.3
		c0.9,1.1,2.5,1.3,3.8,1.2c1-0.1,1.9-0.4,2.7-0.9c1.2-0.8,2.1-2.1,2.2-3.5c0.1-1.9-1.2-3-3-3.3C-197.7,395.5-198.8,395.6-199.8,396
		L-199.8,396z"/>
	<path id="svg_13" class="st0" d="M-165.2,390.7C-165.2,390.7-165.1,390.7-165.2,390.7C-165.1,390.8-165.1,390.8-165.2,390.7
		l-3.3,5.1c0,0,0,0-0.1,0c-0.8-0.5-1.7-0.9-2.6-1.2c-0.6-0.2-1.3-0.3-2-0.3c-0.6,0-1.1,0.1-1.6,0.2c-0.4,0.2-0.8,0.5-0.8,1
		c0,0.5,0.8,0.7,1.2,0.8c0.9,0.2,1.9,0.4,2.8,0.5c0.7,0.1,1.3,0.3,2,0.6c2.1,0.9,3.4,2.4,3,4.8c-0.3,1.6-1.1,3-2.3,4.1
		c-1.1,1-2.3,1.7-3.7,2.2c-2,0.7-4,1.1-6.2,1.1c-2.5,0-4.9-0.4-7.3-1.2c-0.5-0.2-1-0.4-1.6-0.6c0,0,0,0,0,0c0,0,0,0,0,0l3.8-5.6
		c0,0,0,0,0.1,0c0,0,0,0,0,0c1.3,1,2.8,1.8,4.3,2c0.5,0.1,1,0.1,1.4,0.1c0.7,0,1.6-0.2,2.1-0.7c0.4-0.4,0.4-1.1-0.2-1.3
		c-0.2-0.1-0.5-0.2-0.7-0.2c-0.8-0.1-1.7-0.3-2.7-0.4c-2.3-0.4-5.1-1.6-5.1-4.4c0-0.1,0-0.1,0-0.2c0-0.1,0-0.2,0-0.3
		c0.2-1,0.5-1.9,1.1-2.7c1-1.6,2.7-2.8,4.4-3.5c2.1-0.9,4.3-1.4,6.6-1.4c1.4,0,2.7,0.1,4,0.4C-167.4,389.7-166.2,390.2-165.2,390.7
		L-165.2,390.7z"/>
	<path id="svg_14" class="st0" d="M-137.8,396.4c-1.1,0.7-2.1,1.9-2.3,3.2c-0.2,2.1,1.5,3.4,3.4,3.6c2.2,0.3,4.5-0.4,6.3-1.7
		c0,0,0,0,0,0l-1.7,7.3c0,0.1-0.1,0.1-0.1,0.1c-0.6,0.2-1.3,0.3-2,0.4c-1.5,0.2-2.9,0.3-4.3,0.3c-1,0-2-0.1-3-0.3
		c-2.5-0.5-5.1-1.8-6.5-4.1c-0.9-1.4-1.3-3-1.2-4.6c0.1-1.5,0.6-2.9,1.3-4.3c1.9-3.4,5.5-5.7,9.2-6.7c1.5-0.4,2.9-0.6,4.4-0.6
		c1.9,0,3.8,0.3,5.6,0.8c0.1,0,0.1,0.1,0.1,0.1l-1.2,7.4c0,0,0,0,0,0c0,0,0,0,0,0c-0.3-0.3-0.7-0.6-1.1-0.8c-1.2-0.8-2.6-1.2-4-1.1
		C-135.8,395.5-136.9,395.8-137.8,396.4L-137.8,396.4z"/>
	<path id="svg_15" class="st0" d="M-129.8,399.9c0.7-5.2,5.2-8.7,10-10.1c2.2-0.7,4.5-0.9,6.9-0.8c0.9,0.1,1.8,0.2,2.7,0.4
		c4.1,0.9,7.7,3.6,7.7,8.2c0,0.8-0.1,1.6-0.3,2.5c-1,3.7-3.9,6.4-7.3,7.9c-2.8,1.2-5.9,1.7-8.9,1.6c-3.3-0.1-7.1-1.2-9.2-3.8
		C-129.6,404.1-130.1,402.1-129.8,399.9L-129.8,399.9z M-113.4,395.9c-0.5-0.2-1.1-0.3-1.7-0.4c-1.4-0.1-2.6,0.3-3.7,1
		c-0.4,0.3-0.7,0.5-1,0.9c-1.5,1.8-1.6,4.6,0.9,5.6c0.5,0.2,0.9,0.3,1.5,0.3c0.4,0,0.8,0,1.1,0c0.9-0.1,1.8-0.3,2.5-0.8
		c1.2-0.7,1.9-1.7,2.2-3c0,0,0-0.1,0-0.1c0-0.1,0-0.3,0.1-0.4C-111.5,397.6-112.1,396.5-113.4,395.9L-113.4,395.9z"/>
	<path id="svg_16" class="st0" d="M-152.6,395.6C-152.6,395.6-152.6,395.6-152.6,395.6C-152.6,395.7-152.6,395.7-152.6,395.6
		c-1.4,4.6-2.7,9.1-4.1,13.7c0,0,0,0-0.1,0h-8.7c0,0,0,0,0,0c1.4-4.6,2.7-9,4-13.1c0-0.1,0.1-0.3,0.1-0.5c0,0,0-0.1,0-0.1l-4.8,0.2
		c-0.1,0-0.1,0-0.1-0.1l1.9-6.3c0,0,0,0,0.1,0h18.6c0,0,0,0,0,0c0,0,0,0,0,0c-0.1,0.1-0.1,0.1-0.1,0.2c-0.6,2-1.2,4.1-1.9,6.1
		c0,0,0,0-0.1,0L-152.6,395.6C-152.6,395.6-152.6,395.6-152.6,395.6L-152.6,395.6z"/>
</g>
</svg>
