<svg xmlns="http://www.w3.org/2000/svg" xmlns:xlink="http://www.w3.org/1999/xlink" width="136" height="136" viewBox="0 0 136 136">
  <defs>
    <clipPath id="clip-path">
      <rect id="Rectangle_1869" data-name="Rectangle 1869" width="136" height="136" transform="translate(-0.25 0)" fill="none"/>
    </clipPath>
  </defs>
  <g id="RETAILER_LOGOS_MACY_S" data-name="RETAILER LOGOS_MACY&apos;S" transform="translate(0.25)" clip-path="url(#clip-path)">
    <g id="Group_2626" data-name="Group 2626" transform="translate(18.976 54.188)">
      <path id="Fill-1" d="M58.148,36.464a7.223,7.223,0,0,0-2.508-1.041h-.106a4.859,4.859,0,0,1-1.785-.808,1.614,1.614,0,0,1-.552-1.3,2.426,2.426,0,0,1,.106-.786,1.962,1.962,0,0,1,.382-.637,2.17,2.17,0,0,1,.723-.489,2.982,2.982,0,0,1,1-.17,2.425,2.425,0,0,1,.871.149,1.9,1.9,0,0,1,.659.4,2.066,2.066,0,0,1,.4.616,2.313,2.313,0,0,1,.149.893v.574h1.7v-.6a3.7,3.7,0,0,0-1.084-2.656,3.809,3.809,0,0,0-2.72-1.02,4.071,4.071,0,0,0-2.635.892A3.6,3.6,0,0,0,51.5,33.361a3.247,3.247,0,0,0,1.19,2.593,7.45,7.45,0,0,0,2.571,1.126,3.975,3.975,0,0,1,2.019.914,2.172,2.172,0,0,1,.574,1.594v.085a2.615,2.615,0,0,1-.17.935,2.056,2.056,0,0,1-.489.765,2.238,2.238,0,0,1-.786.531,2.692,2.692,0,0,1-1,.191,2.481,2.481,0,0,1-2.656-2.571V38.95H51.072v.744a3.688,3.688,0,0,0,.234,1.445,3.8,3.8,0,0,0,.786,1.232,4.318,4.318,0,0,0,1.488,1.02,4.806,4.806,0,0,0,1.806.361,4.09,4.09,0,0,0,1.679-.34,4.233,4.233,0,0,0,1.381-.956,4.052,4.052,0,0,0,.85-1.381,4.142,4.142,0,0,0,.234-1.615,3.67,3.67,0,0,0-1.4-2.954" transform="translate(38.476 -20.887)" fill="#fff"/>
      <path id="Fill-9" d="M41.7,32.778A5.9,5.9,0,0,1,43.5,31.609a5.612,5.612,0,0,1,2.125-.361,5.406,5.406,0,0,1,2.784.786,4.918,4.918,0,0,1,2.083,2.55l.149.382h1.827L52.2,34.18a6.643,6.643,0,0,0-2.911-3.57,7.432,7.432,0,0,0-3.74-1.02,7.012,7.012,0,0,0-5.036,2.04,7.313,7.313,0,0,0-.191,9.881,7.424,7.424,0,0,0,9.35,1,6.855,6.855,0,0,0,2.507-3.272l.276-.786H50.624l-.128.4a4.634,4.634,0,0,1-1.658,2.167,5.634,5.634,0,0,1-5.334.68,5.429,5.429,0,0,1-1.721-1.1,5.074,5.074,0,0,1-1.19-1.764,5.7,5.7,0,0,1-.4-2.168,6.012,6.012,0,0,1,.425-2.21,4.815,4.815,0,0,1,1.105-1.679" transform="translate(24.325 -20.899)" fill="#fff"/>
      <path id="Fill-11" d="M43.436,29.59v2.316A6.971,6.971,0,0,0,42.183,30.8a7.271,7.271,0,0,0-4.038-1.211A6.811,6.811,0,0,0,32.9,31.842a7.288,7.288,0,0,0,0,9.6A6.811,6.811,0,0,0,38.145,43.7a7.245,7.245,0,0,0,3.719-.977,6.337,6.337,0,0,0,1.573-1.339v2.337h1.7V29.59h-1.7Zm0,7.969a7.326,7.326,0,0,1-.255.977,5.42,5.42,0,0,1-9.01,1.87,5.8,5.8,0,0,1-1.4-3.74A5.462,5.462,0,0,1,34.3,32.8a5.377,5.377,0,0,1,3.846-1.551,5.539,5.539,0,0,1,3.039.893,5.092,5.092,0,0,1,1.934,2.4,4.731,4.731,0,0,1,.276.935,5.4,5.4,0,0,1,.106,1.041,5.484,5.484,0,0,1-.064,1.02h0Z" transform="translate(16 -20.899)" fill="#fff"/>
      <path id="Fill-13" d="M39.146,30.991a4.532,4.532,0,0,0-1.658-1.062,6.175,6.175,0,0,0-4.314.106,4.93,4.93,0,0,0-1.785,1.254,4.059,4.059,0,0,0-.51.68,3.436,3.436,0,0,0-.446-.659,4.443,4.443,0,0,0-1.764-1.275,5.807,5.807,0,0,0-2.295-.425,5.4,5.4,0,0,0-2.189.467,5.115,5.115,0,0,0-1.466,1.041V29.61h-1.7V43.741h1.7V35.815a6.762,6.762,0,0,1,.255-1.976,4.071,4.071,0,0,1,.786-1.424,2.877,2.877,0,0,1,1.126-.85,3.357,3.357,0,0,1,1.466-.3,4.671,4.671,0,0,1,1.721.361,3.3,3.3,0,0,1,1.169.914,3.332,3.332,0,0,1,.574,1.126,6.526,6.526,0,0,1,.213,1.891v8.181h1.679v-7.82a9.506,9.506,0,0,1,.149-2.061,3.282,3.282,0,0,1,.7-1.381,3.185,3.185,0,0,1,1.3-.956,4.536,4.536,0,0,1,3-.043,2.69,2.69,0,0,1,1.041.68,3.547,3.547,0,0,1,.829,1.445,8.074,8.074,0,0,1,.3,2.316v7.82h1.7v-7.82a9.522,9.522,0,0,0-.383-2.848,4.834,4.834,0,0,0-1.211-2.061" transform="translate(4.671 -20.898)" fill="#fff"/>
      <path id="Fill-15" d="M16.389,39.61,13.562,48.3l7.374-5.376,7.416,5.4-2.826-8.734,7.4-5.4H23.763L20.936,25.5l-2.805,8.691H8.93Z" transform="translate(-8.93 -25.5)" fill="#fff"/>
      <path id="Path_10120" data-name="Path 10120" d="M44.94,29.59h1.827L51.188,40.7l4.7-11.114h1.891l-8.1,18.934H47.788l2.444-5.567Z" transform="translate(31.581 -20.899)" fill="#fff"/>
      <path id="Path_10121" data-name="Path 10121" d="M51.745,28.879l-.68,2.083,1.764-1.275,1.785,1.3-.68-2.1,1.785-1.3h-2.21l-.68-2.083-.68,2.083H49.96Z" transform="translate(37.229 -25.5)" fill="#fff"/>
    </g>
  </g>
</svg>
