<svg id="RETAILER_LOGOS_POKEMON_CENTER" data-name="RETAILER LOGOS_POKEMON CENTER" xmlns="http://www.w3.org/2000/svg" width="136" height="136" viewBox="0 0 136 136">
  <rect id="Rectangle_1817" data-name="Rectangle 1817" width="136" height="136" fill="none"/>
  <g id="Group_2583" data-name="Group 2583" transform="translate(13.302 36.231)">
    <g id="Group_2581" data-name="Group 2581" transform="translate(31.726)">
      <path id="Path_9696" data-name="Path 9696" d="M55.615,44.229l5.716,1.1-6.991,1.4,6.035,1.19-8.628,1.7,6.694,1.317L48.39,52.856,55.3,54.174l-9.924,1.912,5.27,1.105-10.051,2.04a19.559,19.559,0,0,0,3.57.34,18.841,18.841,0,0,0,8.415-1.955,13.525,13.525,0,0,0,2.04-1.19A21.786,21.786,0,0,0,57.081,54.6a8.227,8.227,0,0,0,.892-.85,14.244,14.244,0,0,0,2.04-2.507,5.334,5.334,0,0,0,.552-.723l1.275-2.295c.128-.213.212-.425.34-.637.213-.637.425-1.275.637-1.955a1.265,1.265,0,0,1,.213-.637,17.828,17.828,0,0,0,.552-2.38l-7.99,1.615ZM44.161,36.048a3.984,3.984,0,1,0,4,3.974A4.042,4.042,0,0,0,44.161,36.048Zm.552,1.615a2.83,2.83,0,0,0-2.805,2.805,2.557,2.557,0,0,0,.552,1.615,2.8,2.8,0,0,1-1.1-2.167,2.858,2.858,0,0,1,2.8-2.805,3.35,3.35,0,0,1,2.253,1.19A2.413,2.413,0,0,0,44.714,37.662Zm10.9,6.566,5.716,1.1-6.991,1.4,6.035,1.19-8.628,1.7,6.694,1.317L48.39,52.856,55.3,54.174l-9.924,1.912,5.27,1.105-10.051,2.04a19.559,19.559,0,0,0,3.57.34,18.841,18.841,0,0,0,8.415-1.955,13.525,13.525,0,0,0,2.04-1.19A21.786,21.786,0,0,0,57.081,54.6a8.227,8.227,0,0,0,.892-.85,14.244,14.244,0,0,0,2.04-2.507,5.334,5.334,0,0,0,.552-.723l1.275-2.295c.128-.213.212-.425.34-.637.213-.637.425-1.275.637-1.955a1.265,1.265,0,0,1,.213-.637,17.828,17.828,0,0,0,.552-2.38l-7.99,1.615ZM44.161,36.048a3.984,3.984,0,1,0,4,3.974A4.042,4.042,0,0,0,44.161,36.048Zm.552,1.615a2.83,2.83,0,0,0-2.805,2.805,2.557,2.557,0,0,0,.552,1.615,2.8,2.8,0,0,1-1.1-2.167,2.858,2.858,0,0,1,2.8-2.805,3.35,3.35,0,0,1,2.253,1.19A2.413,2.413,0,0,0,44.714,37.662ZM60.375,47.926l-8.628,1.7,6.694,1.317L48.39,52.856,55.3,54.174l-9.924,1.912,5.27,1.105-10.051,2.04a19.559,19.559,0,0,0,3.57.34,18.841,18.841,0,0,0,8.415-1.955,13.525,13.525,0,0,0,2.04-1.19A21.786,21.786,0,0,0,57.081,54.6a8.227,8.227,0,0,0,.892-.85,14.244,14.244,0,0,0,2.04-2.507,5.334,5.334,0,0,0,.552-.723l1.275-2.295c.128-.213.212-.425.34-.637.213-.637.425-1.275.637-1.955a1.265,1.265,0,0,1,.213-.637,17.828,17.828,0,0,0,.552-2.38l-7.99,1.615,5.716,1.1-6.991,1.4,6.035,1.19ZM44.161,17.05A22.993,22.993,0,1,0,67.132,40.021,22.931,22.931,0,0,0,44.161,17.05Zm-14.769,8.2a20.829,20.829,0,0,1,29.58,0,20.568,20.568,0,0,1,6.035,13.281H54A10.006,10.006,0,0,0,44.183,30.1a9.948,9.948,0,0,0-9.817,8.415H23.379a19.909,19.909,0,0,1,6.035-13.281ZM50.961,40.021a6.792,6.792,0,0,1-11.645,4.76,6.773,6.773,0,0,1,0-9.69,7.075,7.075,0,0,1,4.845-2.04,7.15,7.15,0,0,1,4.845,1.912,7.58,7.58,0,0,1,1.955,5.057Zm-6.8,20.974a20.405,20.405,0,0,1-14.769-6.162,19.729,19.729,0,0,1-6.035-13.154H34.344a10.378,10.378,0,0,0,2.8,5.5,9.953,9.953,0,0,0,14.025,0,10.3,10.3,0,0,0,2.805-5.5H64.986A20.884,20.884,0,0,1,44.14,60.995ZM40.166,40.021a4,4,0,1,0,3.995-3.974A4.046,4.046,0,0,0,40.166,40.021Zm4.548-2.359a2.83,2.83,0,0,0-2.805,2.805,2.557,2.557,0,0,0,.552,1.615,2.8,2.8,0,0,1-1.1-2.167,2.858,2.858,0,0,1,2.8-2.805,3.35,3.35,0,0,1,2.253,1.19A2.413,2.413,0,0,0,44.714,37.662Zm10.9,6.566,5.716,1.1-6.991,1.4,6.035,1.19-8.628,1.7,6.694,1.317L48.39,52.856,55.3,54.174l-9.924,1.912,5.27,1.105-10.051,2.04a19.559,19.559,0,0,0,3.57.34,18.841,18.841,0,0,0,8.415-1.955,13.525,13.525,0,0,0,2.04-1.19A21.786,21.786,0,0,0,57.081,54.6a8.227,8.227,0,0,0,.892-.85,14.244,14.244,0,0,0,2.04-2.507,5.334,5.334,0,0,0,.552-.723l1.275-2.295c.128-.213.212-.425.34-.637.213-.637.425-1.275.637-1.955a1.265,1.265,0,0,1,.213-.637,17.828,17.828,0,0,0,.552-2.38l-7.99,1.615Zm0,0,5.716,1.1-6.991,1.4,6.035,1.19-8.628,1.7,6.694,1.317L48.39,52.856,55.3,54.174l-9.924,1.912,5.27,1.105-10.051,2.04a19.559,19.559,0,0,0,3.57.34,18.841,18.841,0,0,0,8.415-1.955,13.525,13.525,0,0,0,2.04-1.19A21.786,21.786,0,0,0,57.081,54.6a8.227,8.227,0,0,0,.892-.85,14.244,14.244,0,0,0,2.04-2.507,5.334,5.334,0,0,0,.552-.723l1.275-2.295c.128-.213.212-.425.34-.637.213-.637.425-1.275.637-1.955a1.265,1.265,0,0,1,.213-.637,17.828,17.828,0,0,0,.552-2.38l-7.99,1.615Z" transform="translate(-21.19 -17.05)" fill="#fff"/>
      <path id="Path_9697" data-name="Path 9697" d="M31.112,35.415h-8.2v-.127l6.162-1.19-5.61-1.062v-.127l7.119-1.4-6.035-1.19,7.778-1.487-6.248-1.19,8.309-1.615-6.035-1.19L37.3,23.09l-5.589-1.062,8.734-1.743-3.867-.722a19.275,19.275,0,0,1,5.716-.892A19.541,19.541,0,0,1,61.606,35.415H53.4A11.333,11.333,0,0,0,42.29,26.66a11.469,11.469,0,0,0-11.114,8.755Z" transform="translate(-19.255 -15.227)" fill="#fff"/>
      <g id="Group_2580" data-name="Group 2580" transform="translate(3.655 3.443)">
        <path id="Path_9698" data-name="Path 9698" d="M61.543,35.415h-8.2A11.333,11.333,0,0,0,42.226,26.66a11.469,11.469,0,0,0-11.114,8.755h-8.2v-.127l6.162-1.19-5.61-1.062v-.127l7.119-1.4-6.035-1.19,7.778-1.487-6.248-1.19,8.309-1.615-6.035-1.19L37.3,23.09l-5.589-1.062,8.734-1.743-3.867-.722a19.275,19.275,0,0,1,5.716-.892A19.541,19.541,0,0,1,61.606,35.415Z" transform="translate(-22.91 -18.67)" fill="#fff"/>
        <path id="Path_9699" data-name="Path 9699" d="M34.115,25.99a3.984,3.984,0,1,0,4,3.974A4.042,4.042,0,0,0,34.115,25.99Zm.552,1.615a2.83,2.83,0,0,0-2.805,2.805,2.557,2.557,0,0,0,.552,1.615,2.8,2.8,0,0,1-1.1-2.167,2.858,2.858,0,0,1,2.8-2.805,3.35,3.35,0,0,1,2.253,1.19A2.413,2.413,0,0,0,34.667,27.6Z" transform="translate(-14.799 -10.435)" fill="#fff"/>
        <path id="Path_9700" data-name="Path 9700" d="M53.322,29.08a17.83,17.83,0,0,1-.552,2.38,1.265,1.265,0,0,0-.213.637c-.212.68-.425,1.318-.637,1.955-.128.213-.212.425-.34.637L50.3,36.985a5.334,5.334,0,0,1-.552.723,14.244,14.244,0,0,1-2.04,2.507,8.228,8.228,0,0,1-.892.85,21.787,21.787,0,0,1-2.465,1.828,13.525,13.525,0,0,1-2.04,1.19A18.841,18.841,0,0,1,33.9,46.038a19.559,19.559,0,0,1-3.57-.34l10.051-2.04-5.27-1.105,9.924-1.912-6.906-1.317L48.18,37.41l-6.694-1.317,8.628-1.7L44.079,33.2l6.991-1.4L45.354,30.7l7.99-1.615Z" transform="translate(-14.562 -6.959)" fill="#fff"/>
      </g>
      <path id="Path_9701" data-name="Path 9701" d="M61.543,35.415h-8.2A11.333,11.333,0,0,0,42.226,26.66a11.469,11.469,0,0,0-11.114,8.755h-8.2v-.127l6.162-1.19-5.61-1.062v-.127l7.119-1.4-6.035-1.19,7.778-1.487-6.248-1.19,8.309-1.615-6.035-1.19L37.3,23.09l-5.589-1.062,8.734-1.743-3.867-.722a19.275,19.275,0,0,1,5.716-.892A19.541,19.541,0,0,1,61.606,35.415Z" transform="translate(-19.255 -15.227)" fill="#fff"/>
      <path id="Path_9702" data-name="Path 9702" d="M53.322,29.08a17.83,17.83,0,0,1-.552,2.38,1.265,1.265,0,0,0-.213.637c-.212.68-.425,1.318-.637,1.955-.128.213-.212.425-.34.637L50.3,36.985a5.334,5.334,0,0,1-.552.723,14.244,14.244,0,0,1-2.04,2.507,8.228,8.228,0,0,1-.892.85,21.787,21.787,0,0,1-2.465,1.828,13.525,13.525,0,0,1-2.04,1.19A18.841,18.841,0,0,1,33.9,46.038a19.559,19.559,0,0,1-3.57-.34l10.051-2.04-5.27-1.105,9.924-1.912-6.906-1.317L48.18,37.41l-6.694-1.317,8.628-1.7L44.079,33.2l6.991-1.4L45.354,30.7l7.99-1.615Z" transform="translate(-10.907 -3.516)" fill="#fff"/>
      <path id="Path_9703" data-name="Path 9703" d="M34.115,25.99a3.984,3.984,0,1,0,4,3.974A4.042,4.042,0,0,0,34.115,25.99Zm.552,1.615a2.83,2.83,0,0,0-2.805,2.805,2.557,2.557,0,0,0,.552,1.615,2.8,2.8,0,0,1-1.1-2.167,2.858,2.858,0,0,1,2.8-2.805,3.35,3.35,0,0,1,2.253,1.19A2.413,2.413,0,0,0,34.667,27.6Z" transform="translate(-11.144 -6.992)" fill="#fff"/>
    </g>
    <g id="Group_2582" data-name="Group 2582" transform="translate(0 52.105)">
      <path id="Path_9704" data-name="Path 9704" d="M22.519,43.185l-.319-.808-.319-.808-3.761,2,.531,1.339,3.868-1.721Z" transform="translate(7.083 -41.57)" fill="#fff"/>
      <path id="Path_9705" data-name="Path 9705" d="M9.32,42.35H6.26v9.563H8.831V48.576h.977c2.359,0,3.825-1.19,3.825-3.06,0-2.21-1.339-3.166-4.292-3.166Zm.17,4.4H8.852V44.114H9.49c.85,0,1.551.319,1.551,1.3.064,1.02-.7,1.339-1.551,1.339Z" transform="translate(-6.26 -40.692)" fill="#fff"/>
      <path id="Path_9706" data-name="Path 9706" d="M13.837,43.41a3.763,3.763,0,1,0,0,7.523,3.763,3.763,0,1,0,0-7.523Zm0,5.759c-1.084,0-1.509-.978-1.509-2,0-1.084.425-2.04,1.509-2.04s1.509.978,1.509,2.04C15.283,48.191,14.858,49.169,13.837,49.169Z" transform="translate(-2.086 -39.5)" fill="#fff"/>
      <path id="Path_9707" data-name="Path 9707" d="M30.808,43.41a3.763,3.763,0,1,0,0,7.523,3.763,3.763,0,1,0,0-7.523Zm0,5.759c-1.084,0-1.509-.978-1.509-2,0-1.084.425-2.04,1.509-2.04s1.509.978,1.509,2.04S31.891,49.169,30.808,49.169Z" transform="translate(17.005 -39.5)" fill="#fff"/>
      <path id="Path_9708" data-name="Path 9708" d="M20.831,45.166H18.366l-1.934,3.017V42H14.18V52.327h2.252V48.779l1.828,3.549H21L18.536,48.46l2.316-3.272Z" transform="translate(2.65 -41.086)" fill="#fff"/>
      <path id="Path_9709" data-name="Path 9709" d="M21.059,43.41a3.418,3.418,0,0,0-3.549,3.761,3.608,3.608,0,0,0,3.867,3.761,6,6,0,0,0,2.423-.425V48.786a4.237,4.237,0,0,1-2.04.531c-1.126,0-1.828-.382-1.934-1.4h4.611V47.49C24.438,45.28,23.524,43.41,21.059,43.41Zm-1.232,3.06c.064-.808.425-1.509,1.3-1.509.914,0,1.3.7,1.3,1.509H19.847Z" transform="translate(6.396 -39.5)" fill="#fff"/>
      <path id="Path_9710" data-name="Path 9710" d="M44.529,43.41a3.418,3.418,0,0,0-3.549,3.761,3.608,3.608,0,0,0,3.868,3.761,6,6,0,0,0,2.423-.425V48.786a4.237,4.237,0,0,1-2.04.531c-1.126,0-1.827-.382-1.934-1.4h4.611V47.49c0-2.21-.914-4.08-3.379-4.08h0ZM43.3,46.47c.064-.808.425-1.509,1.3-1.509.914,0,1.3.7,1.3,1.509H43.318Z" transform="translate(32.8 -39.5)" fill="#fff"/>
      <path id="Path_9711" data-name="Path 9711" d="M55.2,43.41a3.418,3.418,0,0,0-3.549,3.761,3.608,3.608,0,0,0,3.867,3.761,6,6,0,0,0,2.423-.425V48.786a4.237,4.237,0,0,1-2.04.531c-1.126,0-1.828-.382-1.934-1.4h4.611V47.49c-.064-2.21-.914-4.08-3.379-4.08h0Zm-1.3,3.06c.064-.808.425-1.509,1.3-1.509.914,0,1.3.7,1.3,1.509H53.924Z" transform="translate(44.804 -39.5)" fill="#fff"/>
      <path id="Path_9712" data-name="Path 9712" d="M29.884,43.41a2.462,2.462,0,0,0-2.252,1.4,2.026,2.026,0,0,0-2-1.4,2.3,2.3,0,0,0-2.316,1.509V43.58h-2v7.14h2.21V47.7c0-1.551.489-2.253,1.233-2.253.637,0,.85.6.85,1.4V50.72h2.21V47.7c0-1.551.489-2.253,1.232-2.253.638,0,.85.6.85,1.4V50.72h2.21V46.47c0-1.891-.425-3.06-2.252-3.06h0Z" transform="translate(10.682 -39.5)" fill="#fff"/>
      <path id="Path_9713" data-name="Path 9713" d="M35.686,43.39A2.379,2.379,0,0,0,33.264,44.9V43.56h-2.1V50.7h2.316V47.682c0-1.551.489-2.253,1.445-2.253.637,0,1.084.425,1.084,1.828V50.7h2.316V46.237c-.106-1.445-.808-2.847-2.635-2.847h0Z" transform="translate(21.753 -39.522)" fill="#fff"/>
      <path id="Path_9714" data-name="Path 9714" d="M49.316,43.39A2.379,2.379,0,0,0,46.894,44.9V43.56h-2.1V50.7h2.316V47.682c0-1.551.489-2.253,1.445-2.253.637,0,1.084.425,1.084,1.828V50.7h2.316V46.237c-.064-1.445-.808-2.847-2.635-2.847h0Z" transform="translate(37.086 -39.522)" fill="#fff"/>
      <path id="Path_9715" data-name="Path 9715" d="M42.345,50.326a2.806,2.806,0,0,1-2.954-3.017A2.849,2.849,0,0,1,42.2,44.185a4.646,4.646,0,0,1,2.316.637l.212-2.1a8.505,8.505,0,0,0-2.635-.489c-2.954,0-5.1,1.658-5.1,4.994,0,3.591,2.741,4.887,5.1,4.887a9.129,9.129,0,0,0,2.635-.382l-.106-2a5.639,5.639,0,0,1-2.253.531Z" transform="translate(28.311 -40.827)" fill="#fff"/>
      <path id="Path_9716" data-name="Path 9716" d="M53.435,50.411c-.808,0-.978-.425-.978-1.3V46.48h1.721V44.759H52.457V42.4l-2.422.744v1.615H48.59V46.48h1.4v2.911c0,1.721.531,2.677,2.741,2.677.6,0,1.084-.106,1.551-.106l-.106-1.615c-.276,0-.531.064-.744.064h0Z" transform="translate(41.361 -40.636)" fill="#fff"/>
      <path id="Path_9717" data-name="Path 9717" d="M59.541,43.41c-1.02,0-1.551.6-2,1.509V43.58h-2.1v7.14h2.316V47.7c0-1.4.595-2.253,1.657-2.253a2.119,2.119,0,0,1,.808.106l.106-2.04a3.1,3.1,0,0,0-.808-.106h0Z" transform="translate(49.067 -39.5)" fill="#fff"/>
    </g>
  </g>
</svg>
