<svg xmlns="http://www.w3.org/2000/svg" xmlns:xlink="http://www.w3.org/1999/xlink" width="136" height="136" viewBox="0 0 136 136">
  <defs>
    <clipPath id="clip-path">
      <rect id="Rectangle_1897" data-name="Rectangle 1897" width="136" height="136" transform="translate(0.119 0)" fill="none"/>
    </clipPath>
  </defs>
  <g id="RETAILER_LOGOS_SAM_S_CLUB" data-name="RETAILER LOGOS_SAM&apos;S CLUB" transform="translate(-0.119)" clip-path="url(#clip-path)">
    <g id="Group_2663" data-name="Group 2663" transform="translate(13.913 42.443)">
      <g id="Group_2661" data-name="Group 2661" transform="translate(0 33.291)">
        <path id="Path_10349" data-name="Path 10349" d="M12.035,43.158c-1.635-.466-2.194-.954-2.194-1.61,0-.848.667-1.314,1.807-1.314A6.561,6.561,0,0,1,14.7,41.272l1.14-2.077a6.512,6.512,0,0,0-4.108-1.314c-2.968,0-4.581,1.568-4.581,3.645,0,2.352,1.419,3.285,4,4.047,1.527.466,2.194.848,2.194,1.7,0,.742-.581,1.4-2,1.4A6.579,6.579,0,0,1,7.82,47.354L6.68,49.706a8.293,8.293,0,0,0,4.689,1.335c2.753,0,4.753-1.4,4.753-3.857,0-2.161-1.333-3.2-4.108-4.026Z" transform="translate(-6.68 -32.965)" fill="#fff" fill-rule="evenodd"/>
        <path id="Path_10350" data-name="Path 10350" d="M21.994,40.689a4.8,4.8,0,0,0-4.473-2.818c-3.355,0-6,2.543-6,6.569s2.667,6.675,6,6.675A4.783,4.783,0,0,0,21.994,48.3v2.564h2.645V38.083H21.994v2.606Zm-3.807,7.989a3.913,3.913,0,0,1-3.914-4.132,4,4,0,0,1,3.914-4.238h0a3.9,3.9,0,0,1,3.828,4.132,3.955,3.955,0,0,1-3.807,4.217Z" transform="translate(-1.111 -32.976)" fill="#fff" fill-rule="evenodd"/>
        <path id="Path_10351" data-name="Path 10351" d="M33.353,37.871a4.971,4.971,0,0,0-4.3,2.437,4.149,4.149,0,0,0-3.914-2.437,4.062,4.062,0,0,0-3.807,2.543V38.061H18.75V50.84h2.581V43.974c0-2.077,1.355-3.751,3.14-3.751s2.645,1.314,2.645,2.924V50.84H29.7V43.974c.022-2.077,1.269-3.751,3.183-3.751,1.721,0,2.581,1.314,2.581,2.924V50.84h2.581V43.147c0-3.285-2.022-5.255-4.667-5.255Z" transform="translate(7.209 -32.976)" fill="#fff" fill-rule="evenodd"/>
        <path id="Path_10352" data-name="Path 10352" d="M28.849,36.24,27.86,41.3h2.129L31.6,36.24Z" transform="translate(17.692 -34.799)" fill="#fff" fill-rule="evenodd"/>
        <path id="Path_10353" data-name="Path 10353" d="M34.532,43.157c-1.635-.466-2.108-.954-2.108-1.61,0-.848.667-1.314,1.721-1.314A6.48,6.48,0,0,1,37.2,41.271l1.247-2.077A6.758,6.758,0,0,0,34.36,37.88c-3.054,0-4.667,1.568-4.667,3.645,0,2.352,1.419,3.285,4,4.047,1.527.466,2.194.848,2.194,1.7,0,.742-.581,1.4-2,1.4a6.711,6.711,0,0,1-3.527-1.314L29.22,49.7h0a8.226,8.226,0,0,0,4.71,1.335c2.753,0,4.753-1.4,4.753-3.857,0-2.161-1.333-3.2-4.086-4.026Z" transform="translate(19.257 -32.964)" fill="#fff" fill-rule="evenodd"/>
        <path id="Path_10354" data-name="Path 10354" d="M43.161,48.679a3.879,3.879,0,0,1-4.108-4.217,3.813,3.813,0,0,1,4.108-4.132,4.444,4.444,0,0,1,3.14,1.314l1.527-1.886a6.326,6.326,0,0,0-4.753-1.886c-3.914,0-6.775,2.543-6.775,6.569h0c0,4.132,2.86,6.569,6.775,6.569a6.771,6.771,0,0,0,4.861-1.886l-1.613-1.886a4.206,4.206,0,0,1-3.14,1.4Z" transform="translate(27.404 -32.977)" fill="#fff" fill-rule="evenodd"/>
        <path id="Path_10355" data-name="Path 10355" d="M44.811,49.28V35.57l-2.581.466V49.28c0,3.094,1.527,4.514,4.108,4.323h.753V51.061h-.667c-.946,0-1.613-.572-1.613-1.78Z" transform="translate(34.228 -35.549)" fill="#fff" fill-rule="evenodd"/>
        <path id="Path_10356" data-name="Path 10356" d="M53.389,45.662a2.7,2.7,0,0,1-2.86,2.9h-.323a2.781,2.781,0,0,1-2.645-2.9V37.97H44.98v7.5h0c0,3.581,2.194,5.446,5.549,5.446s5.441-1.886,5.441-5.446v-7.5H53.389v7.692Z" transform="translate(37.392 -32.863)" fill="#fff" fill-rule="evenodd"/>
        <path id="Path_10357" data-name="Path 10357" d="M58.294,40.434a4.783,4.783,0,0,0-4.473,2.818V35.56l-2.581.466V53.487h2.581V50.881A4.75,4.75,0,0,0,58.294,53.7h0c3.355-.021,6.022-2.564,6.022-6.612s-2.667-6.675-6.022-6.675Zm-.581,10.829h0a3.9,3.9,0,0,1-3.893-4.132,3.991,3.991,0,0,1,3.914-4.238,3.817,3.817,0,0,1,3.807,4.132c0,2.352-1.527,4.217-3.807,4.217Z" transform="translate(44.596 -35.56)" fill="#fff" fill-rule="evenodd"/>
      </g>
      <g id="Group_2662" data-name="Group 2662" transform="translate(38.32)">
        <path id="Path_10358" data-name="Path 10358" d="M47.484,32.374c.108.106.215.318.323.445a1.369,1.369,0,0,1,.108.657,1.2,1.2,0,0,1-.108.551c-.108.106-.215.318-.323.424L34.817,47.038l-2.194-2.183c-.108-.212-.215-.318-.323-.551a1.35,1.35,0,0,1,0-1.081c.108-.212.215-.318.323-.551l9.442-9.218-9.356-9.239c-.108-.212-.215-.318-.323-.551a1.369,1.369,0,0,1-.108-.657.828.828,0,0,1,.108-.551,2.85,2.85,0,0,1,.323-.551L34.8,19.85,47.484,32.331Z" transform="translate(-15.648 -19.85)" fill="#fff" fill-rule="evenodd"/>
        <path id="Path_10359" data-name="Path 10359" d="M39.6,21.936a1.557,1.557,0,0,1,.065,2.225l-.065.064-9.27,9.239,9.248,9.112a.974.974,0,0,1,.323.551,1.906,1.906,0,0,1,0,1.293c0,.212-.108.318-.323.551l-2.086,2.077L24.933,34.565c-.108-.212-.323-.318-.323-.551a.979.979,0,0,1-.108-.551,1.369,1.369,0,0,1,.108-.657c0-.233.215-.339.323-.445L37.493,19.88,39.6,21.936Z" transform="translate(-24.497 -19.816)" fill="#fff" fill-rule="evenodd"/>
      </g>
    </g>
  </g>
</svg>
