<svg id="RETAILER_LOGOS_TARGET" data-name="RETAILER LOGOS_TARGET" xmlns="http://www.w3.org/2000/svg" width="136" height="136" viewBox="0 0 136 136">
  <rect id="Rectangle_1826" data-name="Rectangle 1826" width="136" height="136" fill="none"/>
  <g id="Group_2590" data-name="Group 2590" transform="translate(14.429 56.567)">
    <path id="Path_9832" data-name="Path 9832" d="M6.79,38.053A11.432,11.432,0,1,1,18.222,49.485,11.436,11.436,0,0,1,6.79,38.053h0ZM18.222,45.66a7.6,7.6,0,1,0-7.586-7.608,7.6,7.6,0,0,0,7.586,7.608Zm0-3.719a3.953,3.953,0,1,0-3.952-3.953,3.945,3.945,0,0,0,3.952,3.953Z" transform="translate(-6.79 -26.62)" fill="#fff"/>
    <path id="Path_9833" data-name="Path 9833" d="M19.3,28.14H32.348v3.272H27.864v13.2H23.869V31.455H19.3V28.14Z" transform="translate(7.284 -24.91)" fill="#fff"/>
    <path id="Path_9834" data-name="Path 9834" d="M31.17,28.14h7.735c4.4,0,5.015,3.017,5.015,4.76a4.471,4.471,0,0,1-2.38,3.868,3.139,3.139,0,0,1,1.934,2.89v3.06c0,1.233.765,1.573.892,1.87H41.221c-1.509-.17-1.466-1.36-1.466-2.04V39.912c-.043-.637-.234-1.36-1.594-1.381H34.974v6.077h-3.8V28.14Zm7.459,3.315H34.974v3.294h3.272c1.147-.021,2.04-.531,2.04-1.658a1.481,1.481,0,0,0-1.658-1.636h0Z" transform="translate(20.638 -24.91)" fill="#fff"/>
    <path id="Path_9835" data-name="Path 9835" d="M45.07,28.14V44.609H56.928v-3.4h-7.99V37.533h6.821V34.409H48.938V31.455h7.99V28.14Z" transform="translate(36.275 -24.91)" fill="#fff"/>
    <path id="Path_9836" data-name="Path 9836" d="M50.92,31.455h4.7V44.609h3.889V31.455h4.781V28.14H50.92v3.315Z" transform="translate(42.856 -24.91)" fill="#fff"/>
    <path id="Path_9837" data-name="Path 9837" d="M29.165,28.14h4.229l5.759,16.469h-4.1l-1.19-3.421H29l-1.126,3.421H23.81L29.165,28.14Zm2.21,5.822-1.4,4.25h2.89l-1.488-4.25Z" transform="translate(12.358 -24.91)" fill="#fff"/>
    <path id="Path_9838" data-name="Path 9838" d="M52.305,35.768H45.229v3.209h3.358a2.76,2.76,0,0,1-.7,2.253,3.469,3.469,0,0,1-2.465,1.02,3.629,3.629,0,0,1-2.529-.892c-1.488-1.275-1.849-3.634-1.849-4.887,0-1.551.616-5.44,4.441-5.589,0,0,2.571-.17,3.251,2.932h3.57a6.851,6.851,0,0,0-6.8-5.992,7.848,7.848,0,0,0-5.631,2.295,9.036,9.036,0,0,0-2.444,6.524,9.444,9.444,0,0,0,2.337,6.651,6.446,6.446,0,0,0,4.951,2.231,7.653,7.653,0,0,0,4.4-1.488l.531.935h2.677v-9.2h0Z" transform="translate(27.68 -25.27)" fill="#fff"/>
    <path id="Path_9839" data-name="Path 9839" d="M56.463,34.93A1.041,1.041,0,1,1,55.4,35.971a1.034,1.034,0,0,1,1.063-1.041Zm0,1.849a.8.8,0,0,0,.786-.829.776.776,0,0,0-.786-.807.819.819,0,0,0,0,1.636Zm-.4-1.4h.446c.3,0,.446.085.446.34a.3.3,0,0,1-.3.319l.319.51h-.234l-.276-.489h-.149v.489H56.08V35.376h0Zm.234.489h.212c.128,0,.234,0,.234-.17,0-.128-.128-.149-.234-.149h-.191v.3h0Z" transform="translate(47.896 -17.271)" fill="#fff"/>
  </g>
</svg>
