<svg xmlns="http://www.w3.org/2000/svg" xmlns:xlink="http://www.w3.org/1999/xlink" width="136" height="136" viewBox="0 0 136 136">
  <defs>
    <clipPath id="clip-path">
      <rect id="Rectangle_1899" data-name="Rectangle 1899" width="136" height="136" transform="translate(-0.189 0)" fill="none"/>
    </clipPath>
  </defs>
  <g id="RETAILER_LOGOS_WALMART" data-name="RETAILER LOGOS_WALMART" transform="translate(0.189)" clip-path="url(#clip-path)">
    <g id="Grupo_928" data-name="Grupo 928" transform="translate(11.059 54.394)">
      <g id="Grupo_927" data-name="Grupo 927">
        <g id="Grupo_926" data-name="Grupo 926">
          <g id="Grupo_925" data-name="Grupo 925">
            <path id="Trazado_1796" data-name="Trazado 1796" d="M42.579,35.709c0-2.734-1.165-5.128-5.107-5.128a9.336,9.336,0,0,0-4.514,1.081l.636,2.2a6.624,6.624,0,0,1,3.285-.932c1.992,0,2.331,1.123,2.331,1.865v.17c-4.365,0-7.12,1.5-7.12,4.577a3.627,3.627,0,0,0,3.624,3.645h.233a4.368,4.368,0,0,0,3.5-1.547h.085s.487,2.077,3.242,1.293a16.576,16.576,0,0,1-.191-2.9m-3.263-1.4a2.331,2.331,0,0,1-.085.657,2.285,2.285,0,0,1-2.2,1.547,1.48,1.48,0,0,1-1.61-1.356v-.254c0-1.653,1.822-2.119,3.9-2.1Z" transform="translate(25.337 -19.794)" fill="#fff"/>
            <path id="Trazado_1797" data-name="Trazado 1797" d="M4.99,28.831S7.83,40.507,8.3,42.393c.53,2.2,1.483,3.03,4.238,2.479l1.78-7.226a48.227,48.227,0,0,0,1.038-4.916h.042a48.724,48.724,0,0,0,.869,4.916s.72,3.285,1.1,5,1.4,2.818,4.111,2.225l4.238-16.041H22.3l-1.441,6.929c-.381,2.013-.742,3.6-1.017,5.446H19.8c-.254-1.822-.551-3.348-.954-5.319l-1.5-7.078h-3.56L12.174,35.7c-.466,2.1-.89,3.793-1.165,5.573h-.042c-.275-1.674-.657-3.814-1.06-5.827,0,0-.954-4.937-1.293-6.633" transform="translate(-4.99 -21.775)" fill="#fff"/>
            <path id="Trazado_1798" data-name="Trazado 1798" d="M24.9,35.709c0-2.734-1.165-5.128-5.107-5.128a9.336,9.336,0,0,0-4.514,1.081l.636,2.2a6.624,6.624,0,0,1,3.285-.932c1.992,0,2.331,1.123,2.331,1.865v.17c-4.365,0-7.12,1.5-7.12,4.577a3.627,3.627,0,0,0,3.624,3.645h.233a4.44,4.44,0,0,0,3.518-1.547h.064s.509,2.077,3.242,1.293a16.575,16.575,0,0,1-.191-2.9m-3.263-1.4a2.152,2.152,0,0,1-2.289,2.2,1.466,1.466,0,0,1-1.611-1.356v-.254c0-1.653,1.822-2.119,3.9-2.1Z" transform="translate(5.552 -19.794)" fill="#fff"/>
            <path id="Trazado_1799" data-name="Trazado 1799" d="M23.643,41.471V28.82H20.38V44.861h3.263" transform="translate(12.233 -21.763)" fill="#fff"/>
            <path id="Trazado_1800" data-name="Trazado 1800" d="M42.044,28.82V40.666a4.893,4.893,0,0,0,.975,3.475,3.605,3.605,0,0,0,2.649,1A8,8,0,0,0,48.02,44.8l-.042-2.543a4.876,4.876,0,0,1-1.229.148c-1.1,0-1.483-.72-1.483-2.183V35.686H48.1V32.613h-2.84V28.82" transform="translate(36.447 -21.763)" fill="#fff"/>
            <path id="Trazado_1801" data-name="Trazado 1801" d="M38.07,30.845V42.9h3.369V36.737a4.2,4.2,0,0,1,.064-.89,2.519,2.519,0,0,1,2.649-2.119,5.05,5.05,0,0,1,.975.085V30.655a2.845,2.845,0,0,0-.742-.085A3.558,3.558,0,0,0,41.1,33.113h-.085V30.845" transform="translate(32.029 -19.805)" fill="#fff"/>
            <path id="Trazado_1802" data-name="Trazado 1802" d="M23,30.849V42.907h3.285V35.85a3.152,3.152,0,0,1,.148-1,2.259,2.259,0,0,1,1.992-1.547c1.314,0,1.95,1.123,1.95,2.734v6.866h3.285V35.744a3.728,3.728,0,0,1,.127-.975,2.047,2.047,0,0,1,1.971-1.462c1.335,0,1.992,1.1,1.992,2.988v6.612h3.285v-7.1c0-3.751-1.907-5.234-4.047-5.234a4.4,4.4,0,0,0-2.373.657,4.921,4.921,0,0,0-1.526,1.5h-.042a3.456,3.456,0,0,0-3.327-2.161A3.8,3.8,0,0,0,26.2,32.481h-.042V30.849" transform="translate(15.165 -19.809)" fill="#fff"/>
            <path id="Trazado_1803" data-name="Trazado 1803" d="M54.2,34.772a1.184,1.184,0,0,0,1.25-.763l.636-7.226c0-.72-.848-1.293-1.886-1.293s-1.886.593-1.886,1.293l.636,7.226a1.16,1.16,0,0,0,1.25.763" transform="translate(47.965 -25.49)" fill="#fff"/>
            <path id="Trazado_1804" data-name="Trazado 1804" d="M55.8,33.974a1.15,1.15,0,0,0-.042-1.462L49.8,28.337c-.615-.36-1.547.064-2.077,1s-.445,1.928.191,2.289l6.59,3.073A1.182,1.182,0,0,0,55.8,34" transform="translate(42.443 -22.446)" fill="#fff"/>
            <path id="Trazado_1805" data-name="Trazado 1805" d="M55.163,33.979a1.2,1.2,0,0,0,1.293.7l6.59-3.073c.615-.36.7-1.377.191-2.289s-1.462-1.335-2.077-1L55.206,32.5a1.179,1.179,0,0,0-.042,1.462" transform="translate(50.897 -22.452)" fill="#fff"/>
            <path id="Trazado_1806" data-name="Trazado 1806" d="M54.2,34.134a1.184,1.184,0,0,1,1.25.763l.636,7.226c0,.72-.848,1.293-1.886,1.293s-1.886-.593-1.886-1.293l.636-7.226a1.184,1.184,0,0,1,1.25-.763" transform="translate(47.965 -15.825)" fill="#fff"/>
            <path id="Trazado_1807" data-name="Trazado 1807" d="M55.163,33.447a1.2,1.2,0,0,1,1.293-.7l6.59,3.073c.615.36.7,1.377.191,2.289s-1.462,1.335-2.077.975l-5.955-4.175a1.179,1.179,0,0,1-.042-1.462" transform="translate(50.897 -17.385)" fill="#fff"/>
            <path id="Trazado_1808" data-name="Trazado 1808" d="M55.8,33.451a1.15,1.15,0,0,1-.042,1.462L49.8,39.087c-.615.36-1.547-.085-2.077-.975s-.445-1.928.191-2.289l6.59-3.073a1.157,1.157,0,0,1,1.293.7" transform="translate(42.443 -17.388)" fill="#fff"/>
          </g>
        </g>
      </g>
    </g>
  </g>
</svg>
